# xmcd
#
# Track frame offsets:
#	150
#	13776
#	34761
#	46622
#	59665
#	70919
#	84069
#	97172
#	113151
#	131519
#	155822
#	167527
#	176049
#	197719
#
# Disc length: 2870 seconds
#
# Revision: 1
# Processed by: cddbd v1.5.1PL0 Copyright (c) Steve Scherf et al.
# Submitted via: audiograbber 1.83.01
#
DISCID=b90b340e
DTITLE=Caetano Veloso - Caetano canta caetando vol 1
DYEAR=1900
DGENRE=
TTITLE0=Sonhos
TTITLE1=Charles, anjo 45
TTITLE2=Ouro de tolo
TTITLE3=Super-homem
TTITLE4=Help
TTITLE5=Acontece
TTITLE6=Tu me acostumbraste
TTITLE7=Meia lua inteira
TTITLE8=Oceano
TTITLE9=Partido alto
TTITLE10=Amanhã
TTITLE11=Todo amor que houver nessa vida
TTITLE12=Debaixo dos caracóis dos seus cabelos
TTITLE13=Nega maluca - Billie Jean - Eleanor Rigby
EXTD=
EXTT0=
EXTT1=
EXTT2=
EXTT3=
EXTT4=
EXTT5=
EXTT6=
EXTT7=
EXTT8=
EXTT9=
EXTT10=
EXTT11=
EXTT12=
EXTT13=
PLAYORDER=
